<svg xmlns="http://www.w3.org/2000/svg" width="24" height="24" stroke-width="1.5" stroke="#808080" fill="none" stroke-linejoin="round" stroke-linecap="round" viewBox="0 0 24 24"> <g fill="none" fill-rule="evenodd"><rect width="24" height="24" style="stroke:rgba(0,0,0,0)"></rect><path d="M18.8201994,14.5113767 C18.0971994,13.7973767 17.1951994,13.7973767 16.4771994,14.5113767 C15.9291994,15.0543767 15.3811994,15.5973767 14.8421994,16.1503767 C14.6951994,16.3023767 14.5701994,16.3343767 14.3911994,16.2333767 C14.0361994,16.0393767 13.6591994,15.8833767 13.3181994,15.6713767 C11.7301994,14.6723767 10.4001994,13.3873767 9.22119939,11.9423767 C8.63619939,11.2233767 8.11619939,10.4553767 7.75219939,9.58937666 C7.67819939,9.41437666 7.69219939,9.29937666 7.83519939,9.15737666 C8.38319939,8.62737666 8.91719939,8.08437666 9.45619939,7.54037666 C10.2061994,6.78537666 10.2061994,5.90237666 9.45119939,5.14237666 C9.02319939,4.70937666 8.59419939,4.28537666 8.16719939,3.85337666 C7.72419939,3.41137666 7.28719939,2.96437666 6.84119939,2.52737666 C6.11819939,1.82337666 5.21619939,1.82337666 4.49719939,2.53237666 C3.94519939,3.07437666 3.41519939,3.63237666 2.85419939,4.16637666 C2.33319939,4.65837666 2.07119939,5.26137666 2.01619939,5.96637666 C1.92819939,7.11237666 2.20919939,8.19437666 2.60519939,9.24837666 C3.41519939,11.4313767 4.64919939,13.3693767 6.14519939,15.1463767 C8.16719939,17.5503767 10.5791994,19.4513767 13.4011994,20.8233767 C14.6721994,21.4403767 15.9881994,21.9143767 17.4211994,21.9923767 C18.4051994,22.0483767 19.2621994,21.7993767 19.9481994,21.0303767 C20.4181994,20.5053767 20.9471994,20.0263767 21.4441994,19.5253767 C22.1811994,18.7793767 22.1851994,17.8763767 21.4531994,17.1393767 C20.5791994,16.2613767 19.6991994,15.3863767 18.8201994,14.5113767 Z" stroke="#808080"></path></g></svg>